<svg width="20" height="20" viewBox="0 0 20 20" fill="none" xmlns="http://www.w3.org/2000/svg">
<path d="M7.21582 13.6299H5.61231C4.54911 13.6299 3.52946 13.2075 2.77766 12.4557C2.02587 11.7039 1.60352 10.6843 1.60352 9.62109C1.60352 8.5579 2.02587 7.53825 2.77766 6.78645C3.52946 6.03466 4.54911 5.6123 5.61231 5.6123H7.21582" stroke="black" style="stroke:black;stroke-opacity:1;" stroke-width="1.60352" stroke-linecap="round" stroke-linejoin="round"/>
<path d="M12.0264 5.6123H13.6299C14.6931 5.6123 15.7127 6.03466 16.4645 6.78645C17.2163 7.53825 17.6387 8.5579 17.6387 9.62109C17.6387 10.6843 17.2163 11.7039 16.4645 12.4557C15.7127 13.2075 14.6931 13.6299 13.6299 13.6299H12.0264" stroke="black" style="stroke:black;stroke-opacity:1;" stroke-width="1.60352" stroke-linecap="round" stroke-linejoin="round"/>
<path d="M6.41406 9.62109H12.8281" stroke="black" style="stroke:black;stroke-opacity:1;" stroke-width="1.60352" stroke-linecap="round" stroke-linejoin="round"/>
</svg>
