<svg width="39" height="39" viewBox="0 0 39 39" fill="none" xmlns="http://www.w3.org/2000/svg">
<path d="M0 11.2246C0 5.02543 5.02543 0 11.2246 0H27.2598C33.4589 0 38.4844 5.02543 38.4844 11.2246V27.2598C38.4844 33.4589 33.4589 38.4844 27.2598 38.4844H11.2246C5.02543 38.4844 0 33.4589 0 27.2598V11.2246Z" fill="#F1F5F9" style="fill:#F1F5F9;fill:color(display-p3 0.9451 0.9608 0.9765);fill-opacity:1;"/>
<g clip-path="url(#clip0_7_3013)">
<path d="M16.8369 23.251H15.2334C14.1702 23.251 13.1506 22.8286 12.3988 22.0768C11.647 21.325 11.2246 20.3054 11.2246 19.2422C11.2246 18.179 11.647 17.1593 12.3988 16.4075C13.1506 15.6558 14.1702 15.2334 15.2334 15.2334H16.8369" stroke="#314158" style="stroke:#314158;stroke:color(display-p3 0.1922 0.2549 0.3451);stroke-opacity:1;" stroke-width="1.60352" stroke-linecap="round" stroke-linejoin="round"/>
<path d="M21.6475 15.2334H23.251C24.3142 15.2334 25.3338 15.6558 26.0856 16.4075C26.8374 17.1593 27.2598 18.179 27.2598 19.2422C27.2598 20.3054 26.8374 21.325 26.0856 22.0768C25.3338 22.8286 24.3142 23.251 23.251 23.251H21.6475" stroke="#314158" style="stroke:#314158;stroke:color(display-p3 0.1922 0.2549 0.3451);stroke-opacity:1;" stroke-width="1.60352" stroke-linecap="round" stroke-linejoin="round"/>
<path d="M16.0352 19.2422H22.4492" stroke="#314158" style="stroke:#314158;stroke:color(display-p3 0.1922 0.2549 0.3451);stroke-opacity:1;" stroke-width="1.60352" stroke-linecap="round" stroke-linejoin="round"/>
</g>
<defs>
<clipPath id="clip0_7_3013">
<rect width="19.2422" height="19.2422" fill="white" style="fill:white;fill-opacity:1;" transform="translate(9.62109 9.62109)"/>
</clipPath>
</defs>
</svg>
