<svg width="52" height="52" viewBox="0 0 52 52" fill="none" xmlns="http://www.w3.org/2000/svg">
<path d="M0 12.8281C0 5.74335 5.74335 0 12.8281 0H38.4844C45.5692 0 51.3125 5.74335 51.3125 12.8281V38.4844C51.3125 45.5692 45.5692 51.3125 38.4844 51.3125H12.8281C5.74335 51.3125 0 45.5692 0 38.4844V12.8281Z" fill="#0F172B" style="fill:#0F172B;fill:color(display-p3 0.0588 0.0902 0.1686);fill-opacity:1;"/>
<path d="M24.6054 15.8362C24.6513 15.591 24.7814 15.3695 24.9733 15.2101C25.1652 15.0507 25.4068 14.9635 25.6563 14.9635C25.9058 14.9635 26.1474 15.0507 26.3393 15.2101C26.5312 15.3695 26.6613 15.591 26.7071 15.8362L27.8307 21.7778C27.9105 22.2002 28.1157 22.5888 28.4197 22.8927C28.7237 23.1967 29.1122 23.402 29.5347 23.4818L35.4762 24.6053C35.7214 24.6511 35.9429 24.7813 36.1023 24.9732C36.2617 25.1651 36.3489 25.4067 36.3489 25.6562C36.3489 25.9056 36.2617 26.1472 36.1023 26.3392C35.9429 26.5311 35.7214 26.6612 35.4762 26.707L29.5347 27.8305C29.1122 27.9103 28.7237 28.1156 28.4197 28.4196C28.1157 28.7236 27.9105 29.1121 27.8307 29.5345L26.7071 35.4761C26.6613 35.7213 26.5312 35.9428 26.3393 36.1022C26.1474 36.2616 25.9058 36.3488 25.6563 36.3488C25.4068 36.3488 25.1652 36.2616 24.9733 36.1022C24.7814 35.9428 24.6513 35.7213 24.6054 35.4761L23.4819 29.5345C23.4021 29.1121 23.1968 28.7236 22.8929 28.4196C22.5889 28.1156 22.2003 27.9103 21.7779 27.8305L15.8364 26.707C15.5911 26.6612 15.3696 26.5311 15.2103 26.3392C15.0509 26.1472 14.9636 25.9056 14.9636 25.6562C14.9636 25.4067 15.0509 25.1651 15.2103 24.9732C15.3696 24.7813 15.5911 24.6511 15.8364 24.6053L21.7779 23.4818C22.2003 23.402 22.5889 23.1967 22.8929 22.8927C23.1968 22.5888 23.4021 22.2002 23.4819 21.7778L24.6054 15.8362Z" stroke="white" style="stroke:white;stroke-opacity:1;" stroke-width="2.13802" stroke-linecap="round" stroke-linejoin="round"/>
<path d="M34.2083 14.9661V19.2421" stroke="white" style="stroke:white;stroke-opacity:1;" stroke-width="2.13802" stroke-linecap="round" stroke-linejoin="round"/>
<path d="M36.3464 17.1041H32.0703" stroke="white" style="stroke:white;stroke-opacity:1;" stroke-width="2.13802" stroke-linecap="round" stroke-linejoin="round"/>
<path d="M17.1041 36.3464C18.2849 36.3464 19.2421 35.3891 19.2421 34.2083C19.2421 33.0275 18.2849 32.0703 17.1041 32.0703C15.9233 32.0703 14.9661 33.0275 14.9661 34.2083C14.9661 35.3891 15.9233 36.3464 17.1041 36.3464Z" stroke="white" style="stroke:white;stroke-opacity:1;" stroke-width="2.13802" stroke-linecap="round" stroke-linejoin="round"/>
</svg>
