<svg width="39" height="39" viewBox="0 0 39 39" fill="none" xmlns="http://www.w3.org/2000/svg">
<mask id="path-1-inside-1_7_3044" fill="white">
<path d="M0 11.2246C0 5.02543 5.02543 0 11.2246 0H27.2598C33.4589 0 38.4844 5.02543 38.4844 11.2246V27.2598C38.4844 33.4589 33.4589 38.4844 27.2598 38.4844H11.2246C5.02543 38.4844 0 33.4589 0 27.2598V11.2246Z"/>
</mask>
<path d="M0 11.2246C0 5.02543 5.02543 0 11.2246 0H27.2598C33.4589 0 38.4844 5.02543 38.4844 11.2246V27.2598C38.4844 33.4589 33.4589 38.4844 27.2598 38.4844H11.2246C5.02543 38.4844 0 33.4589 0 27.2598V11.2246Z" fill="white" fill-opacity="0.1" style="fill:white;fill-opacity:0.1;"/>
<path d="M11.2246 0V0.641406H27.2598V0V-0.641406H11.2246V0ZM38.4844 11.2246H37.843V27.2598H38.4844H39.1258V11.2246H38.4844ZM27.2598 38.4844V37.843H11.2246V38.4844V39.1258H27.2598V38.4844ZM0 27.2598H0.641406V11.2246H0H-0.641406V27.2598H0ZM11.2246 38.4844V37.843C5.37967 37.843 0.641406 33.1047 0.641406 27.2598H0H-0.641406C-0.641406 33.8132 4.67119 39.1258 11.2246 39.1258V38.4844ZM38.4844 27.2598H37.843C37.843 33.1047 33.1047 37.843 27.2598 37.843V38.4844V39.1258C33.8132 39.1258 39.1258 33.8132 39.1258 27.2598H38.4844ZM27.2598 0V0.641406C33.1047 0.641406 37.843 5.37967 37.843 11.2246H38.4844H39.1258C39.1258 4.67119 33.8132 -0.641406 27.2598 -0.641406V0ZM11.2246 0V-0.641406C4.67119 -0.641406 -0.641406 4.67119 -0.641406 11.2246H0H0.641406C0.641406 5.37967 5.37967 0.641406 11.2246 0.641406V0Z" fill="white" fill-opacity="0.2" style="fill:white;fill-opacity:0.2;" mask="url(#path-1-inside-1_7_3044)"/>
<path d="M24.8545 12.0264H13.6299C12.7443 12.0264 12.0264 12.7443 12.0264 13.6299V24.8545C12.0264 25.7401 12.7443 26.458 13.6299 26.458H24.8545C25.7401 26.458 26.458 25.7401 26.458 24.8545V13.6299C26.458 12.7443 25.7401 12.0264 24.8545 12.0264Z" stroke="white" style="stroke:white;stroke-opacity:1;" stroke-width="1.60352" stroke-linecap="round" stroke-linejoin="round"/>
<path d="M12.0264 16.8369H26.458" stroke="white" style="stroke:white;stroke-opacity:1;" stroke-width="1.60352" stroke-linecap="round" stroke-linejoin="round"/>
<path d="M12.0264 21.6475H26.458" stroke="white" style="stroke:white;stroke-opacity:1;" stroke-width="1.60352" stroke-linecap="round" stroke-linejoin="round"/>
<path d="M16.8369 12.0264V26.458" stroke="white" style="stroke:white;stroke-opacity:1;" stroke-width="1.60352" stroke-linecap="round" stroke-linejoin="round"/>
<path d="M21.6475 12.0264V26.458" stroke="white" style="stroke:white;stroke-opacity:1;" stroke-width="1.60352" stroke-linecap="round" stroke-linejoin="round"/>
</svg>
